<svg xmlns="http://www.w3.org/2000/svg" width="201" height="125" viewBox="0 0 201 125">
  <g fill="none" transform="translate(-3 -1)">
    <path fill="#F79410" d="M7.85925,0 L7.85925,2.39707125 L7.23443963,2.39707125 L6.51138863,0.750558375 L5.79226725,2.39707125 L5.16352725,2.39707125 L5.16352725,0 L5.60757488,0 L5.60757488,1.8076275 L6.28347038,0.247566375 L6.7432365,0.247566375 L7.419132,1.81155713 L7.419132,0 L7.85925,0 Z M3.89425838,0 L3.89425838,1.98839025 L4.69590188,1.98839025 L4.69590188,2.39314163 L2.65249688,2.39314163 L2.65249688,1.98839025 L3.45414038,1.98839025 L3.45414038,0 L3.89425838,0 Z" transform="matrix(1 0 0 -1 193.27 102.048)"/>
    <polygon fill="#FF5F00" points="130.082 112.359 76.004 112.359 76.004 15.171 130.082 15.171"/>
    <path fill="#EB001B" d="M78.5925,62.874 C78.5925,82.5889286 87.8231891,100.150423 102.197757,111.467743 C91.6860105,119.743533 78.4195965,124.683072 64.0018024,124.683072 C29.8690796,124.683072 2.20059,97.0106524 2.20059,62.874 C2.20059,28.7373476 29.8690796,1.06492838 64.0018024,1.06492838 C78.4195965,1.06492838 91.6860105,6.004467 102.197757,14.2802573 C87.8231891,25.5975773 78.5925,43.1590714 78.5925,62.874" transform="matrix(1 0 0 -1 .876 126.631)"/>
    <path fill="#F79E1B" d="M102.17025,62.874 C102.17025,28.7373476 74.5017604,1.06492838 40.3690376,1.06492838 C25.9512435,1.06492838 12.6848295,6.004467 2.169153,14.2802573 C16.5476509,25.5975773 25.77834,43.1590714 25.77834,62.874 C25.77834,82.5889286 16.5476509,100.150423 2.169153,111.467743 C12.6848295,119.743533 25.9512435,124.683072 40.3690376,124.683072 C74.5017604,124.683072 102.17025,97.0106524 102.17025,62.874" transform="matrix(1 0 0 -1 100.846 126.631)"/>
  </g>
</svg>
